# xmcd
#
# Track frame offsets:
#	150
#	14147
#	31822
#	45522
#	60707
#	76413
#	91867
#	112962
#	126632
#	136705
#	150747
#	165107
#
# Disc length: 2526 seconds
#
# Revision: 0
# Processed by: cddbd v1.5.2PL0 Copyright (c) Steve Scherf et al.
# Submitted via: EasyCDDAExtractor 11.1.0.1
#
DISCID=8d09dc0c
DTITLE=DEPAPEPE - HOP! SKIP! JUMP!
DYEAR=2008
DGENRE=Instrumental
TTITLE0=FESTA!!
TTITLE1=Ready! Go!!
TTITLE2=Great Escape
TTITLE3=禁じられた愛
TTITLE4=Horizon
TTITLE5=旅の空から
TTITLE6=Marine Drive
TTITLE7=ROSY
TTITLE8=a ボトム
TTITLE9=VIVA JUMP!
TTITLE10=GIGIO2
TTITLE11=桜風
EXTD=
EXTT0=
EXTT1=
EXTT2=
EXTT3=
EXTT4=
EXTT5=
EXTT6=
EXTT7=
EXTT8=
EXTT9=
EXTT10=
EXTT11=
PLAYORDER=
